<?xml version="1.0" encoding="UTF-8"?>
<!DOCTYPE svg PUBLIC "-//W3C//DTD SVG 1.1//EN" "http://www.w3.org/Graphics/SVG/1.1/DTD/svg11.dtd">
<svg xmlns="http://www.w3.org/2000/svg" version="1.1" width="20px" height="20px" style="shape-rendering:geometricPrecision; text-rendering:geometricPrecision; image-rendering:optimizeQuality; fill-rule:evenodd; clip-rule:evenodd" xmlns:xlink="http://www.w3.org/1999/xlink">
<g><path style="opacity:0.583" fill="#fafafa" d="M 6.5,0.5 C 14.9863,0.151397 18.8197,4.1514 18,12.5C 15.6471,17.4264 11.8138,19.2598 6.5,18C -1.4452,12.1697 -1.4452,6.33632 6.5,0.5 Z M 13.5,5.5 C 10.8333,6.83333 8.16667,6.83333 5.5,5.5C 8.08985,2.94054 10.7565,2.94054 13.5,5.5 Z M 5.5,5.5 C 6.83333,8.16667 6.83333,10.8333 5.5,13.5C 2.83333,10.8333 2.83333,8.16667 5.5,5.5 Z M 13.5,5.5 C 16.1667,8.16667 16.1667,10.8333 13.5,13.5C 12.1667,10.8333 12.1667,8.16667 13.5,5.5 Z M 13.5,13.5 C 10.8333,16.1667 8.16667,16.1667 5.5,13.5C 8.16667,12.1667 10.8333,12.1667 13.5,13.5 Z"/></g>
<g><path style="opacity:0.503" fill="#fbfbfb" d="M 5.5,5.5 C 8.16667,6.83333 10.8333,6.83333 13.5,5.5C 12.1667,8.16667 12.1667,10.8333 13.5,13.5C 10.8333,12.1667 8.16667,12.1667 5.5,13.5C 6.83333,10.8333 6.83333,8.16667 5.5,5.5 Z"/></g>
</svg>
